<mxfile host="app.diagrams.net" modified="2023-03-12T20:46:40.420Z" agent="5.0 (Windows)" etag="eGPdq-u3jfhfMwvriGaZ" version="21.0.6" type="github">
  <diagram name="Page-1" id="2YBvvXClWsGukQMizWep">
    <mxGraphModel dx="940" dy="485" grid="1" gridSize="10" guides="1" tooltips="1" connect="1" arrows="1" fold="1" page="1" pageScale="1" pageWidth="850" pageHeight="1100" math="0" shadow="0">
      <root>
        <mxCell id="0" />
        <mxCell id="1" parent="0" />
        <mxCell id="p2Yzt20SqLvDjsBAjT_I-1" value="" style="shape=umlLifeline;perimeter=lifelinePerimeter;whiteSpace=wrap;html=1;container=1;dropTarget=0;collapsible=0;recursiveResize=0;outlineConnect=0;portConstraint=eastwest;newEdgeStyle={&quot;edgeStyle&quot;:&quot;elbowEdgeStyle&quot;,&quot;elbow&quot;:&quot;vertical&quot;,&quot;curved&quot;:0,&quot;rounded&quot;:0};participant=umlActor;" vertex="1" parent="1">
          <mxGeometry x="20" y="80" width="40" height="480" as="geometry" />
        </mxCell>
        <mxCell id="p2Yzt20SqLvDjsBAjT_I-2" value="" style="html=1;points=[];perimeter=orthogonalPerimeter;outlineConnect=0;targetShapes=umlLifeline;portConstraint=eastwest;newEdgeStyle={&quot;edgeStyle&quot;:&quot;elbowEdgeStyle&quot;,&quot;elbow&quot;:&quot;vertical&quot;,&quot;curved&quot;:0,&quot;rounded&quot;:0};" vertex="1" parent="p2Yzt20SqLvDjsBAjT_I-1">
          <mxGeometry x="15" y="149" width="10" height="221" as="geometry" />
        </mxCell>
        <mxCell id="p2Yzt20SqLvDjsBAjT_I-3" value="" style="shape=umlLifeline;perimeter=lifelinePerimeter;whiteSpace=wrap;html=1;container=1;dropTarget=0;collapsible=0;recursiveResize=0;outlineConnect=0;portConstraint=eastwest;newEdgeStyle={&quot;edgeStyle&quot;:&quot;elbowEdgeStyle&quot;,&quot;elbow&quot;:&quot;vertical&quot;,&quot;curved&quot;:0,&quot;rounded&quot;:0};participant=umlBoundary;" vertex="1" parent="1">
          <mxGeometry x="150" y="80" width="50" height="480" as="geometry" />
        </mxCell>
        <mxCell id="p2Yzt20SqLvDjsBAjT_I-4" value="" style="html=1;points=[];perimeter=orthogonalPerimeter;outlineConnect=0;targetShapes=umlLifeline;portConstraint=eastwest;newEdgeStyle={&quot;edgeStyle&quot;:&quot;elbowEdgeStyle&quot;,&quot;elbow&quot;:&quot;vertical&quot;,&quot;curved&quot;:0,&quot;rounded&quot;:0};" vertex="1" parent="p2Yzt20SqLvDjsBAjT_I-3">
          <mxGeometry x="20" y="149.58" width="10" height="220.42" as="geometry" />
        </mxCell>
        <mxCell id="p2Yzt20SqLvDjsBAjT_I-7" value="" style="shape=umlLifeline;perimeter=lifelinePerimeter;whiteSpace=wrap;html=1;container=1;dropTarget=0;collapsible=0;recursiveResize=0;outlineConnect=0;portConstraint=eastwest;newEdgeStyle={&quot;edgeStyle&quot;:&quot;elbowEdgeStyle&quot;,&quot;elbow&quot;:&quot;vertical&quot;,&quot;curved&quot;:0,&quot;rounded&quot;:0};participant=umlEntity;" vertex="1" parent="1">
          <mxGeometry x="430" y="80" width="40" height="480" as="geometry" />
        </mxCell>
        <mxCell id="p2Yzt20SqLvDjsBAjT_I-8" value="" style="html=1;points=[];perimeter=orthogonalPerimeter;outlineConnect=0;targetShapes=umlLifeline;portConstraint=eastwest;newEdgeStyle={&quot;edgeStyle&quot;:&quot;elbowEdgeStyle&quot;,&quot;elbow&quot;:&quot;vertical&quot;,&quot;curved&quot;:0,&quot;rounded&quot;:0};" vertex="1" parent="p2Yzt20SqLvDjsBAjT_I-7">
          <mxGeometry x="15" y="300" width="10" height="40" as="geometry" />
        </mxCell>
        <mxCell id="p2Yzt20SqLvDjsBAjT_I-9" value="" style="shape=umlLifeline;perimeter=lifelinePerimeter;whiteSpace=wrap;html=1;container=1;dropTarget=0;collapsible=0;recursiveResize=0;outlineConnect=0;portConstraint=eastwest;newEdgeStyle={&quot;edgeStyle&quot;:&quot;elbowEdgeStyle&quot;,&quot;elbow&quot;:&quot;vertical&quot;,&quot;curved&quot;:0,&quot;rounded&quot;:0};participant=umlControl;" vertex="1" parent="1">
          <mxGeometry x="290" y="80" width="40" height="480" as="geometry" />
        </mxCell>
        <mxCell id="p2Yzt20SqLvDjsBAjT_I-10" value="" style="html=1;points=[];perimeter=orthogonalPerimeter;outlineConnect=0;targetShapes=umlLifeline;portConstraint=eastwest;newEdgeStyle={&quot;edgeStyle&quot;:&quot;elbowEdgeStyle&quot;,&quot;elbow&quot;:&quot;vertical&quot;,&quot;curved&quot;:0,&quot;rounded&quot;:0};" vertex="1" parent="p2Yzt20SqLvDjsBAjT_I-9">
          <mxGeometry x="15" y="170" width="10" height="200" as="geometry" />
        </mxCell>
        <mxCell id="p2Yzt20SqLvDjsBAjT_I-25" value="" style="html=1;points=[];perimeter=orthogonalPerimeter;outlineConnect=0;targetShapes=umlLifeline;portConstraint=eastwest;newEdgeStyle={&quot;edgeStyle&quot;:&quot;elbowEdgeStyle&quot;,&quot;elbow&quot;:&quot;vertical&quot;,&quot;curved&quot;:0,&quot;rounded&quot;:0};" vertex="1" parent="p2Yzt20SqLvDjsBAjT_I-9">
          <mxGeometry x="20" y="190" width="10" height="20" as="geometry" />
        </mxCell>
        <mxCell id="p2Yzt20SqLvDjsBAjT_I-26" value="verification" style="html=1;align=left;spacingLeft=2;endArrow=block;rounded=0;edgeStyle=orthogonalEdgeStyle;curved=0;rounded=0;" edge="1" target="p2Yzt20SqLvDjsBAjT_I-25" parent="p2Yzt20SqLvDjsBAjT_I-9">
          <mxGeometry relative="1" as="geometry">
            <mxPoint x="25" y="170" as="sourcePoint" />
            <Array as="points">
              <mxPoint x="25" y="180" />
              <mxPoint x="55" y="180" />
              <mxPoint x="55" y="200" />
            </Array>
          </mxGeometry>
        </mxCell>
        <mxCell id="p2Yzt20SqLvDjsBAjT_I-15" value="&lt;div&gt;interface : updateprofile&lt;/div&gt;" style="text;html=1;align=center;verticalAlign=middle;resizable=0;points=[];autosize=1;strokeColor=none;fillColor=none;" vertex="1" parent="1">
          <mxGeometry x="100.00000000000001" y="50" width="160" height="30" as="geometry" />
        </mxCell>
        <mxCell id="p2Yzt20SqLvDjsBAjT_I-16" value="Controller" style="text;html=1;align=center;verticalAlign=middle;resizable=0;points=[];autosize=1;strokeColor=none;fillColor=none;" vertex="1" parent="1">
          <mxGeometry x="270" y="50" width="80" height="30" as="geometry" />
        </mxCell>
        <mxCell id="p2Yzt20SqLvDjsBAjT_I-17" value="DB:User" style="text;html=1;align=center;verticalAlign=middle;resizable=0;points=[];autosize=1;strokeColor=none;fillColor=none;" vertex="1" parent="1">
          <mxGeometry x="415" y="50" width="70" height="30" as="geometry" />
        </mxCell>
        <mxCell id="p2Yzt20SqLvDjsBAjT_I-18" value="recherche profile" style="html=1;verticalAlign=bottom;endArrow=block;edgeStyle=elbowEdgeStyle;elbow=vertical;curved=0;rounded=0;" edge="1" parent="1" source="p2Yzt20SqLvDjsBAjT_I-2">
          <mxGeometry width="80" relative="1" as="geometry">
            <mxPoint x="41" y="229" as="sourcePoint" />
            <mxPoint x="170.5" y="228.57999999999998" as="targetPoint" />
            <Array as="points">
              <mxPoint x="116" y="229" />
              <mxPoint x="56" y="228.57999999999998" />
            </Array>
          </mxGeometry>
        </mxCell>
        <mxCell id="p2Yzt20SqLvDjsBAjT_I-20" value="Authentification" style="html=1;whiteSpace=wrap;" vertex="1" parent="1">
          <mxGeometry x="20" y="150" width="450" height="50" as="geometry" />
        </mxCell>
        <mxCell id="p2Yzt20SqLvDjsBAjT_I-21" value="" style="endArrow=none;html=1;rounded=0;exitX=0.001;exitY=0.419;exitDx=0;exitDy=0;exitPerimeter=0;entryX=0.066;entryY=0.011;entryDx=0;entryDy=0;entryPerimeter=0;" edge="1" parent="1" source="p2Yzt20SqLvDjsBAjT_I-20" target="p2Yzt20SqLvDjsBAjT_I-20">
          <mxGeometry width="50" height="50" relative="1" as="geometry">
            <mxPoint x="15" y="200" as="sourcePoint" />
            <mxPoint x="65" y="150" as="targetPoint" />
            <Array as="points">
              <mxPoint x="40" y="171" />
              <mxPoint x="50" y="160" />
            </Array>
          </mxGeometry>
        </mxCell>
        <mxCell id="p2Yzt20SqLvDjsBAjT_I-22" value="ref" style="text;html=1;strokeColor=none;fillColor=none;align=center;verticalAlign=middle;whiteSpace=wrap;rounded=0;" vertex="1" parent="1">
          <mxGeometry x="23" y="154" width="20" height="10" as="geometry" />
        </mxCell>
        <mxCell id="p2Yzt20SqLvDjsBAjT_I-24" value="Post(data)" style="html=1;verticalAlign=bottom;endArrow=block;edgeStyle=elbowEdgeStyle;elbow=vertical;curved=0;rounded=0;" edge="1" parent="1" target="p2Yzt20SqLvDjsBAjT_I-10">
          <mxGeometry width="80" relative="1" as="geometry">
            <mxPoint x="180" y="250" as="sourcePoint" />
            <mxPoint x="270" y="250" as="targetPoint" />
          </mxGeometry>
        </mxCell>
        <mxCell id="p2Yzt20SqLvDjsBAjT_I-27" value="return" style="html=1;verticalAlign=bottom;endArrow=open;dashed=1;endSize=8;edgeStyle=elbowEdgeStyle;elbow=vertical;curved=0;rounded=0;" edge="1" parent="1">
          <mxGeometry relative="1" as="geometry">
            <mxPoint x="304" y="289.25" as="sourcePoint" />
            <mxPoint x="179.35401459854018" y="289" as="targetPoint" />
            <Array as="points">
              <mxPoint x="294" y="289" />
              <mxPoint x="294" y="289" />
            </Array>
          </mxGeometry>
        </mxCell>
        <mxCell id="p2Yzt20SqLvDjsBAjT_I-28" value="return" style="html=1;verticalAlign=bottom;endArrow=open;dashed=1;endSize=8;edgeStyle=elbowEdgeStyle;elbow=vertical;curved=0;rounded=0;" edge="1" parent="1" source="p2Yzt20SqLvDjsBAjT_I-10">
          <mxGeometry relative="1" as="geometry">
            <mxPoint x="307.5" y="330.25" as="sourcePoint" />
            <mxPoint x="180" y="330" as="targetPoint" />
            <Array as="points">
              <mxPoint x="270" y="330" />
            </Array>
          </mxGeometry>
        </mxCell>
        <mxCell id="p2Yzt20SqLvDjsBAjT_I-29" value="Cliquer sur ajouter" style="html=1;verticalAlign=bottom;endArrow=block;edgeStyle=elbowEdgeStyle;elbow=vertical;curved=0;rounded=0;" edge="1" parent="1" source="p2Yzt20SqLvDjsBAjT_I-2" target="p2Yzt20SqLvDjsBAjT_I-4">
          <mxGeometry x="-0.0031" width="80" relative="1" as="geometry">
            <mxPoint x="50" y="380" as="sourcePoint" />
            <mxPoint x="130" y="380" as="targetPoint" />
            <Array as="points">
              <mxPoint x="130" y="380" />
            </Array>
            <mxPoint as="offset" />
          </mxGeometry>
        </mxCell>
        <mxCell id="p2Yzt20SqLvDjsBAjT_I-30" value="Invitation envoyer" style="html=1;verticalAlign=bottom;endArrow=block;edgeStyle=elbowEdgeStyle;elbow=vertical;curved=0;rounded=0;" edge="1" parent="1" source="p2Yzt20SqLvDjsBAjT_I-4" target="p2Yzt20SqLvDjsBAjT_I-10">
          <mxGeometry width="80" relative="1" as="geometry">
            <mxPoint x="200" y="380" as="sourcePoint" />
            <mxPoint x="300" y="380" as="targetPoint" />
            <Array as="points">
              <mxPoint x="270" y="380" />
            </Array>
          </mxGeometry>
        </mxCell>
        <mxCell id="p2Yzt20SqLvDjsBAjT_I-31" value="ajouter a la liste" style="html=1;verticalAlign=bottom;endArrow=open;dashed=1;endSize=8;edgeStyle=elbowEdgeStyle;elbow=vertical;curved=0;rounded=0;" edge="1" parent="1" target="p2Yzt20SqLvDjsBAjT_I-4">
          <mxGeometry relative="1" as="geometry">
            <mxPoint x="450" y="420.36" as="sourcePoint" />
            <mxPoint x="370" y="420.36" as="targetPoint" />
          </mxGeometry>
        </mxCell>
        <mxCell id="p2Yzt20SqLvDjsBAjT_I-32" value="envoi de donne" style="html=1;verticalAlign=bottom;endArrow=block;edgeStyle=elbowEdgeStyle;elbow=vertical;curved=0;rounded=0;" edge="1" parent="1" source="p2Yzt20SqLvDjsBAjT_I-10" target="p2Yzt20SqLvDjsBAjT_I-8">
          <mxGeometry width="80" relative="1" as="geometry">
            <mxPoint x="320" y="380" as="sourcePoint" />
            <mxPoint x="400" y="380" as="targetPoint" />
            <Array as="points">
              <mxPoint x="410" y="380" />
            </Array>
          </mxGeometry>
        </mxCell>
      </root>
    </mxGraphModel>
  </diagram>
</mxfile>
